<?xml version="1.0" encoding="utf-8"?>
<!-- Generator: Adobe Illustrator 29.4.0, SVG Export Plug-In . SVG Version: 9.03 Build 0)  -->
<!DOCTYPE svg PUBLIC "-//W3C//DTD SVG 1.0//EN" "http://www.w3.org/TR/2001/REC-SVG-20010904/DTD/svg10.dtd" [
	<!ENTITY ns_extend "http://ns.adobe.com/Extensibility/1.0/">
	<!ENTITY ns_ai "http://ns.adobe.com/AdobeIllustrator/10.0/">
	<!ENTITY ns_graphs "http://ns.adobe.com/Graphs/1.0/">
	<!ENTITY ns_vars "http://ns.adobe.com/Variables/1.0/">
	<!ENTITY ns_imrep "http://ns.adobe.com/ImageReplacement/1.0/">
	<!ENTITY ns_sfw "http://ns.adobe.com/SaveForWeb/1.0/">
	<!ENTITY ns_custom "http://ns.adobe.com/GenericCustomNamespace/1.0/">
	<!ENTITY ns_adobe_xpath "http://ns.adobe.com/XPath/1.0/">
]>
<svg version="1.0" id="Layer_1" xmlns:x="&ns_extend;" xmlns:i="&ns_ai;" xmlns:graph="&ns_graphs;"
	 xmlns="http://www.w3.org/2000/svg" xmlns:xlink="http://www.w3.org/1999/xlink" x="0px" y="0px" viewBox="0 0 825 412"
	 style="enable-background:new 0 0 825 412;" xml:space="preserve">
<style type="text/css">
	.st0{fill:none;stroke:#000000;stroke-width:2;stroke-linecap:square;stroke-linejoin:round;stroke-miterlimit:10;}
	.st1{font-family:'ArialMT';}
	.st2{font-size:36px;}
	.st3{enable-background:new    ;}
	.st4{fill:#B40426;}
	.st5{fill:#3B4CC0;}
	.st6{fill:#808080;}
	.st7{fill:none;stroke:#808080;stroke-width:2;stroke-linejoin:bevel;stroke-miterlimit:1;stroke-dasharray:8,8;}
	.st8{fill:none;stroke:#000000;stroke-width:2;stroke-linejoin:round;stroke-miterlimit:10;}
	.st9{fill:none;stroke:#CD6632;stroke-width:2;stroke-linejoin:round;stroke-miterlimit:10;}
	.st10{fill:#CD6632;}
	.st11{fill:#0D8944;}
	.st12{fill:none;stroke:#0D8944;stroke-width:2;stroke-linejoin:bevel;stroke-miterlimit:1;stroke-dasharray:8,8;}
</style>
<metadata>
	<sfw  xmlns="&ns_sfw;">
		<slices></slices>
		<sliceSourceBounds  bottomLeftOrigin="true" height="407.1" width="616.9" x="40.1" y="-2.7"></sliceSourceBounds>
	</sfw>
</metadata>
<line class="st0" x1="160.4" y1="306" x2="377" y2="306"/>
<line class="st0" x1="160.4" y1="306" x2="160.4" y2="313.7"/>
<line class="st0" x1="268.7" y1="306" x2="268.7" y2="313.7"/>
<line class="st0" x1="377" y1="306" x2="377" y2="313.7"/>
<g transform="translate(160.4146,324.85)">
	<text transform="matrix(1 0 0 1 -26.5 34.0002)" class="st1 st2">-40</text>
</g>
<g transform="translate(268.7073,324.85)">
	<text transform="matrix(1 0 0 1 -10.5 34.0002)" class="st1 st2">0</text>
</g>
<g transform="translate(377,324.85)">
	<text transform="matrix(1 0 0 1 -20.5 34.0002)" class="st1 st2">40</text>
</g>
<g transform="translate(121,403)">
	<text transform="matrix(1 0 0 1 0.2899 9.611835e-05)" class="st3"><tspan x="0" y="0" class="st4 st1 st2">#right</tspan><tspan x="90.1" y="0" class="st1 st2"> – </tspan><tspan x="130.1" y="0" class="st5 st1 st2">#left </tspan><tspan x="208.1" y="0" class="st1 st2">clicks  </tspan></text>
</g>
<line class="st0" x1="155" y1="293.9" x2="155" y2="51"/>
<line class="st0" x1="155" y1="293.9" x2="147.4" y2="293.9"/>
<line class="st0" x1="155" y1="172.4" x2="147.4" y2="172.4"/>
<line class="st0" x1="155" y1="51" x2="147.4" y2="51"/>
<g transform="translate(136.15,293.8571)">
	<text transform="matrix(1 0 0 1 -21 13.0002)" class="st1 st2">0</text>
</g>
<g transform="translate(136.15,172.4286)">
	<text transform="matrix(1 0 0 1 -51 13.0002)" class="st1 st2">0.5</text>
</g>
<g transform="translate(136.15,51)">
	<text transform="matrix(1 0 0 1 -21 13.0001)" class="st1 st2">1</text>
</g>
<g transform="translate(71,331) rotate(-90)">
	<text transform="matrix(1 0 0 1 -5.843996e-04 0)" class="st1 st2">fraction chose </text>
</g>
<g transform="translate(71,96) rotate(-90)">
	<text transform="matrix(1 0 0 1 -5.843996e-04 0)" class="st4 st1 st2">right</text>
</g>
<g transform="translate(266.0002,46.5)">
	<text transform="matrix(1 0 0 1 -35.5 -7.9999)" class="st6 st1 st2">data</text>
</g>
<g>
	<line class="st7" x1="160.4" y1="172.4" x2="377" y2="172.4"/>
	<line class="st7" x1="268.7" y1="293.9" x2="268.7" y2="51"/>
</g>
<g>
	<path class="st8" d="M168.6,277.2l32.6-7.6l27.5-17.6l25.5-37.5l27.9-88.5l23.5-36.8l28.7-10.7l30.6-4.2"/>
</g>
<g transform="translate(168.6022,277.1861)">
	<circle cx="0" cy="0" r="6"/>
	<circle cx="32.6" cy="-7.6" r="6"/>
	<circle cx="60.1" cy="-25.1" r="6"/>
	<circle cx="85.6" cy="-62.7" r="6"/>
	<circle cx="113.5" cy="-151.2" r="6"/>
	<circle cx="137" cy="-187.9" r="6"/>
	<circle cx="165.7" cy="-198.6" r="6"/>
	<circle cx="196.4" cy="-202.8" r="6"/>
</g>
<g>
	<path class="st9" d="M168.6,287.5l32.6-2.9l27.5-12.4l25.5-45.8l27.9-109l23.5-45L334.3,62l30.6,1"/>
</g>
<g transform="translate(168.6022,287.5155)">
	<circle class="st10" cx="0" cy="0" r="6"/>
	<circle class="st10" cx="32.6" cy="-2.9" r="6"/>
	<circle class="st10" cx="60.1" cy="-15.3" r="6"/>
	<circle class="st10" cx="85.6" cy="-61" r="6"/>
	<circle class="st10" cx="113.5" cy="-170" r="6"/>
	<circle class="st10" cx="137" cy="-215" r="6"/>
	<circle class="st10" cx="165.7" cy="-225.5" r="6"/>
	<circle class="st10" cx="196.4" cy="-224.5" r="6"/>
</g>
<g transform="translate(160.4146,75.2857)">
	<text transform="matrix(1 0 0 1 2.1877 -2.6723)" class="st3"><tspan x="0" y="0" class="st10 st1 st2">trials</tspan><tspan x="0" y="43.2" class="st10 st1 st2">with</tspan><tspan x="0" y="86.4" class="st10 st1 st2">nTc</tspan></text>
</g>
<g transform="translate(268.7073,245.2857)">
	<text transform="matrix(1 0 0 1 13.362 -36.7719)" class="st3"><tspan x="0" y="0" class="st1 st2">trials </tspan><tspan x="0" y="43.2" class="st1 st2">without </tspan><tspan x="0" y="86.4" class="st1 st2">nTc</tspan></text>
</g>
<line class="st0" x1="438.4" y1="306" x2="656" y2="306"/>
<line class="st0" x1="438.4" y1="306" x2="438.4" y2="313.7"/>
<line class="st0" x1="547.2" y1="306" x2="547.2" y2="313.7"/>
<line class="st0" x1="656" y1="306" x2="656" y2="313.7"/>
<g transform="translate(629.5006,46.5)">
	<text transform="matrix(1 0 0 1 -159.5393 -7.9999)" class="st11 st1 st2">predicted</text>
</g>
<g>
	<line class="st12" x1="438.4" y1="172.4" x2="656" y2="172.4"/>
	<line class="st12" x1="547.2" y1="293.9" x2="547.2" y2="51"/>
</g>
<g>
	<path class="st8" d="M447.1,262.4l32.3-5.9l27.7-11.5l25.6-33.3l28-82.2l23.7-31.1l28.8-4.6l30.5-0.8"/>
</g>
<g transform="translate(532.0894,262.408)">
	<circle cx="-85" cy="0" r="6"/>
	<circle cx="-52.8" cy="-5.9" r="6"/>
	<circle cx="-25.1" cy="-17.3" r="6"/>
	<circle cx="0.5" cy="-50.7" r="6"/>
	<circle cx="28.5" cy="-132.8" r="6"/>
	<circle cx="52.2" cy="-163.9" r="6"/>
	<circle cx="81" cy="-168.5" r="6"/>
	<circle cx="111.5" cy="-169.3" r="6"/>
</g>
<g>
	<path class="st9" d="M447.1,288.9l32.3-2.4l27.7-10.3l25.6-39.7l28-124.7l23.7-41.5l28.8-10.9l30.5-3"/>
</g>
<g transform="translate(532.0894,288.9119)">
	<circle class="st10" cx="-85" cy="0" r="6"/>
	<circle class="st10" cx="-52.8" cy="-2.4" r="6"/>
	<circle class="st10" cx="-25.1" cy="-12.8" r="6"/>
	<circle class="st10" cx="0.5" cy="-52.5" r="6"/>
	<circle class="st10" cx="28.5" cy="-177.2" r="6"/>
	<circle class="st10" cx="52.2" cy="-218.7" r="6"/>
	<circle class="st10" cx="81" cy="-229.6" r="6"/>
	<circle class="st10" cx="111.5" cy="-232.6" r="6"/>
</g>
</svg>
